<svg width="66" height="36" viewBox="0 0 66 36" fill="none" xmlns="http://www.w3.org/2000/svg">
<path d="M6.61309 18.0647C6.47445 19.7006 6.68241 21.2257 7.22311 22.6121C7.77766 24.0123 8.55404 25.2185 9.55225 26.2306C10.5643 27.2426 11.7705 28.0329 13.1846 28.6151C14.5987 29.1974 16.096 29.4886 17.6765 29.4886C19.4927 29.4886 21.1841 29.1558 22.7507 28.4765C24.3035 27.811 25.9255 26.8267 27.6031 25.5235L30.5561 30.3897C28.5874 31.887 26.5078 33.0516 24.3035 33.8973C22.0991 34.743 19.7284 35.1589 17.1913 35.1589C14.5987 35.1589 12.2557 34.7153 10.1484 33.828C8.04108 32.9407 6.23877 31.6929 4.7276 30.0847C3.2303 28.4765 2.06573 26.5772 1.24775 24.3728C0.415918 22.1823 0 19.7838 0 17.1913C0 14.6958 0.38819 12.3944 1.16457 10.287C1.94095 8.17972 3.02234 6.36354 4.40873 4.82465C5.79512 3.28575 7.47266 2.10732 9.42747 1.26162C11.3961 0.429782 13.5728 0 15.9712 0C17.7458 0 19.5481 0.332735 21.3643 1.01207C23.1805 1.6914 24.8164 2.75892 26.2583 4.2285C27.7001 5.69807 28.8647 7.5697 29.7797 9.85725C30.6947 12.1448 31.1522 14.876 31.1522 18.0508H6.61309V18.0647ZM21.1425 7.66675C19.7977 6.34968 18.0508 5.68421 15.8881 5.68421C13.7253 5.68421 11.8953 6.34968 10.3841 7.66675C8.87291 8.98383 7.86085 10.7723 7.33402 13.0182H23.8737C23.3884 10.7723 22.4734 8.98383 21.1425 7.66675Z" fill="#242323"/>
<path d="M63.4137 34.3685H34.2301L35.0203 31.0827L53.8614 6.54359H34.4519L36.1711 0.859375H64.1346L63.2057 4.14513L44.5033 28.6981H65.0635L63.4137 34.3685Z" fill="#242323"/>
</svg>
